# xmcd
#
# Track frame offsets:
#	150
#	13410
#	21941
#	33388
#	48698
#	55288
#	63410
#	76734
#	87187
#	103210
#	111755
#	118549
#	133161
#
# Disc length: 1943 seconds
#
# Revision: 1
# Processed by: cddbd v1.5.2PL0 Copyright (c) Steve Scherf et al.
# Submitted via: EZCDAudioConverter 5.0.0.1
#
DISCID=b207950d
DTITLE=Charlie Daniels - Songs from the Longleaf Pines
DYEAR=2005
DGENRE=Country
TTITLE0=Walkin' in Jerusalem (Just Like John)
TTITLE1=Preachin', Prayin', Singin'
TTITLE2=I've Found a Hidin' Place
TTITLE3=I'm Working on a Building
TTITLE4=The 91st Psalm (Recitation)
TTITLE5=Keep on the Sunny Side
TTITLE6=Softly and Tenderly
TTITLE7=The Old Account
TTITLE8=I'll Fly Away (instrumental)
TTITLE9=How Great Thou Art
TTITLE10=The 23rd Psalm (Recitation)
TTITLE11=What Would You Give (In Exchange for Your Soul)
TTITLE12=The Old Crossroads
EXTD=
EXTT0=
EXTT1=
EXTT2=
EXTT3=
EXTT4=
EXTT5=
EXTT6=
EXTT7=
EXTT8=
EXTT9=
EXTT10=
EXTT11=
EXTT12=
PLAYORDER=
